<svg width="98" height="17" viewBox="0 0 98 17" fill="none" xmlns="http://www.w3.org/2000/svg">
<rect x="0.926025" y="0.433548" width="16" height="16" rx="4" fill="black"/>
<path d="M24.3813 4.20627H27.0233L28.7279 7.75173H28.7961L30.5006 4.20627H33.1427L29.9381 10.1892V12.9335H27.5858V10.1892L24.3813 4.20627ZM41.7602 8.56991C41.7602 9.5415 41.5713 10.3611 41.1934 11.0287C40.8156 11.6935 40.3057 12.1978 39.6636 12.5415C39.0216 12.8824 38.3057 13.0529 37.5159 13.0529C36.7204 13.0529 36.0017 12.881 35.3596 12.5372C34.7204 12.1907 34.2119 11.685 33.8341 11.0202C33.4591 10.3526 33.2716 9.53582 33.2716 8.56991C33.2716 7.59832 33.4591 6.78014 33.8341 6.11537C34.2119 5.44775 34.7204 4.94349 35.3596 4.60258C36.0017 4.25883 36.7204 4.08696 37.5159 4.08696C38.3057 4.08696 39.0216 4.25883 39.6636 4.60258C40.3057 4.94349 40.8156 5.44775 41.1934 6.11537C41.5713 6.78014 41.7602 7.59832 41.7602 8.56991ZM39.3227 8.56991C39.3227 8.04718 39.2531 7.60684 39.1139 7.24889C38.9775 6.88809 38.7744 6.61537 38.5045 6.43071C38.2375 6.24321 37.9079 6.14946 37.5159 6.14946C37.1238 6.14946 36.7929 6.24321 36.523 6.43071C36.2559 6.61537 36.0528 6.88809 35.9136 7.24889C35.7773 7.60684 35.7091 8.04718 35.7091 8.56991C35.7091 9.09264 35.7773 9.5344 35.9136 9.8952C36.0528 10.2532 36.2559 10.5259 36.523 10.7134C36.7929 10.898 37.1238 10.9904 37.5159 10.9904C37.9079 10.9904 38.2375 10.898 38.5045 10.7134C38.7744 10.5259 38.9775 10.2532 39.1139 9.8952C39.2531 9.5344 39.3227 9.09264 39.3227 8.56991ZM48.0212 4.20627H50.3905V9.79718C50.3905 10.462 50.2314 11.0372 49.9133 11.523C49.5979 12.006 49.1576 12.3796 48.5922 12.6438C48.0269 12.9051 47.3706 13.0358 46.6235 13.0358C45.8706 13.0358 45.2116 12.9051 44.6462 12.6438C44.0809 12.3796 43.6405 12.006 43.3252 11.523C43.0127 11.0372 42.8564 10.462 42.8564 9.79718V4.20627H45.2258V9.59264C45.2258 9.86253 45.2854 10.104 45.4047 10.3171C45.5241 10.5273 45.6888 10.6921 45.8991 10.8114C46.1121 10.9307 46.3536 10.9904 46.6235 10.9904C46.8962 10.9904 47.1377 10.9307 47.3479 10.8114C47.5581 10.6921 47.7229 10.5273 47.8422 10.3171C47.9616 10.104 48.0212 9.86253 48.0212 9.59264V4.20627ZM51.5166 12.9335V4.20627H55.2836C55.9314 4.20627 56.4981 4.32417 56.9839 4.55997C57.4697 4.79576 57.8476 5.13525 58.1175 5.57843C58.3873 6.02162 58.5223 6.55287 58.5223 7.17218C58.5223 7.79718 58.3831 8.32417 58.1047 8.75315C57.8291 9.18213 57.4413 9.50599 56.9413 9.72474C56.4442 9.94349 55.8632 10.0529 55.1984 10.0529H52.9484V8.21196H54.7211C54.9996 8.21196 55.2368 8.17787 55.4328 8.10968C55.6317 8.03866 55.7836 7.92645 55.8888 7.77304C55.9967 7.61963 56.0507 7.41934 56.0507 7.17218C56.0507 6.92218 55.9967 6.71906 55.8888 6.56281C55.7836 6.40372 55.6317 6.28724 55.4328 6.21338C55.2368 6.13667 54.9996 6.09832 54.7211 6.09832H53.8859V12.9335H51.5166ZM56.6302 8.92787L58.8121 12.9335H56.2382L54.1075 8.92787H56.6302ZM61.9229 12.9335V4.20627H64.2922V11.0245H67.8206V12.9335H61.9229ZM76.893 8.56991C76.893 9.5415 76.7041 10.3611 76.3263 11.0287C75.9484 11.6935 75.4385 12.1978 74.7964 12.5415C74.1544 12.8824 73.4385 13.0529 72.6487 13.0529C71.8532 13.0529 71.1345 12.881 70.4925 12.5372C69.8532 12.1907 69.3447 11.685 68.9669 11.0202C68.5919 10.3526 68.4044 9.53582 68.4044 8.56991C68.4044 7.59832 68.5919 6.78014 68.9669 6.11537C69.3447 5.44775 69.8532 4.94349 70.4925 4.60258C71.1345 4.25883 71.8532 4.08696 72.6487 4.08696C73.4385 4.08696 74.1544 4.25883 74.7964 4.60258C75.4385 4.94349 75.9484 5.44775 76.3263 6.11537C76.7041 6.78014 76.893 7.59832 76.893 8.56991ZM74.4555 8.56991C74.4555 8.04718 74.3859 7.60684 74.2467 7.24889C74.1104 6.88809 73.9072 6.61537 73.6373 6.43071C73.3703 6.24321 73.0407 6.14946 72.6487 6.14946C72.2567 6.14946 71.9257 6.24321 71.6558 6.43071C71.3888 6.61537 71.1856 6.88809 71.0464 7.24889C70.9101 7.60684 70.8419 8.04718 70.8419 8.56991C70.8419 9.09264 70.9101 9.5344 71.0464 9.8952C71.1856 10.2532 71.3888 10.5259 71.6558 10.7134C71.9257 10.898 72.2567 10.9904 72.6487 10.9904C73.0407 10.9904 73.3703 10.898 73.6373 10.7134C73.9072 10.5259 74.1104 10.2532 74.2467 9.8952C74.3859 9.5344 74.4555 9.09264 74.4555 8.56991ZM83.6569 7.08696C83.6199 6.93639 83.5617 6.80429 83.4822 6.69065C83.4026 6.57417 83.3032 6.47616 83.1839 6.39662C83.0674 6.31423 82.931 6.25315 82.7748 6.21338C82.6214 6.17076 82.4523 6.14946 82.2677 6.14946C81.8699 6.14946 81.5305 6.24463 81.2492 6.43497C80.9708 6.62531 80.7577 6.89946 80.61 7.25741C80.4651 7.61537 80.3927 8.04718 80.3927 8.55287C80.3927 9.06423 80.4623 9.50173 80.6015 9.86537C80.7407 10.229 80.9481 10.5074 81.2236 10.7006C81.4992 10.8938 81.8415 10.9904 82.2506 10.9904C82.6114 10.9904 82.9111 10.9378 83.1498 10.8327C83.3912 10.7276 83.5716 10.5784 83.691 10.3853C83.8103 10.1921 83.8699 9.9648 83.8699 9.70343L84.279 9.74605H82.2847V8.05855H86.154V9.26877C86.154 10.0642 85.985 10.7446 85.6469 11.31C85.3117 11.8725 84.8486 12.3043 84.2577 12.6054C83.6697 12.9037 82.9949 13.0529 82.2336 13.0529C81.3841 13.0529 80.6384 12.8725 79.9964 12.5117C79.3543 12.1509 78.8529 11.6367 78.4921 10.9691C78.1341 10.3014 77.9552 9.50741 77.9552 8.58696C77.9552 7.86537 78.0645 7.22616 78.2833 6.66934C78.5049 6.11253 78.8117 5.64235 79.2037 5.25883C79.5958 4.87247 80.0489 4.58127 80.5631 4.38525C81.0773 4.18639 81.6285 4.08696 82.2165 4.08696C82.7336 4.08696 83.2137 4.16082 83.6569 4.30855C84.1029 4.45343 84.4964 4.66082 84.8373 4.93071C85.181 5.19775 85.458 5.51451 85.6682 5.88099C85.8785 6.24747 86.0063 6.64946 86.0518 7.08696H83.6569ZM95.7133 8.56991C95.7133 9.5415 95.5244 10.3611 95.1466 11.0287C94.7687 11.6935 94.2588 12.1978 93.6167 12.5415C92.9747 12.8824 92.2588 13.0529 91.469 13.0529C90.6736 13.0529 89.9548 12.881 89.3128 12.5372C88.6736 12.1907 88.165 11.685 87.7872 11.0202C87.4122 10.3526 87.2247 9.53582 87.2247 8.56991C87.2247 7.59832 87.4122 6.78014 87.7872 6.11537C88.165 5.44775 88.6736 4.94349 89.3128 4.60258C89.9548 4.25883 90.6736 4.08696 91.469 4.08696C92.2588 4.08696 92.9747 4.25883 93.6167 4.60258C94.2588 4.94349 94.7687 5.44775 95.1466 6.11537C95.5244 6.78014 95.7133 7.59832 95.7133 8.56991ZM93.2758 8.56991C93.2758 8.04718 93.2062 7.60684 93.067 7.24889C92.9307 6.88809 92.7275 6.61537 92.4577 6.43071C92.1906 6.24321 91.8611 6.14946 91.469 6.14946C91.077 6.14946 90.746 6.24321 90.4761 6.43071C90.2091 6.61537 90.0059 6.88809 89.8667 7.24889C89.7304 7.60684 89.6622 8.04718 89.6622 8.56991C89.6622 9.09264 89.7304 9.5344 89.8667 9.8952C90.0059 10.2532 90.2091 10.5259 90.4761 10.7134C90.746 10.898 91.077 10.9904 91.469 10.9904C91.8611 10.9904 92.1906 10.898 92.4577 10.7134C92.7275 10.5259 92.9307 10.2532 93.067 9.8952C93.2062 9.5344 93.2758 9.09264 93.2758 8.56991Z" fill="black"/>
</svg>
