<svg width="98" height="17" viewBox="0 0 98 17" fill="none" xmlns="http://www.w3.org/2000/svg">
<rect x="0.926025" y="0.0313721" width="16" height="16" rx="4" fill="white"/>
<path d="M24.3813 3.8041H27.0233L28.7279 7.34955H28.7961L30.5006 3.8041H33.1427L29.9381 9.78705V12.5314H27.5858V9.78705L24.3813 3.8041ZM41.7602 8.16774C41.7602 9.13933 41.5713 9.95893 41.1934 10.6265C40.8156 11.2913 40.3057 11.7956 39.6636 12.1393C39.0216 12.4802 38.3057 12.6507 37.5159 12.6507C36.7204 12.6507 36.0017 12.4788 35.3596 12.1351C34.7204 11.7885 34.2119 11.2828 33.8341 10.618C33.4591 9.95041 33.2716 9.13364 33.2716 8.16774C33.2716 7.19614 33.4591 6.37796 33.8341 5.71319C34.2119 5.04558 34.7204 4.54131 35.3596 4.20041C36.0017 3.85666 36.7204 3.68478 37.5159 3.68478C38.3057 3.68478 39.0216 3.85666 39.6636 4.20041C40.3057 4.54131 40.8156 5.04558 41.1934 5.71319C41.5713 6.37796 41.7602 7.19614 41.7602 8.16774ZM39.3227 8.16774C39.3227 7.64501 39.2531 7.20467 39.1139 6.84671C38.9775 6.48592 38.7744 6.21319 38.5045 6.02853C38.2375 5.84103 37.9079 5.74728 37.5159 5.74728C37.1238 5.74728 36.7929 5.84103 36.523 6.02853C36.2559 6.21319 36.0528 6.48592 35.9136 6.84671C35.7773 7.20467 35.7091 7.64501 35.7091 8.16774C35.7091 8.69046 35.7773 9.13222 35.9136 9.49302C36.0528 9.85097 36.2559 10.1237 36.523 10.3112C36.7929 10.4959 37.1238 10.5882 37.5159 10.5882C37.9079 10.5882 38.2375 10.4959 38.5045 10.3112C38.7744 10.1237 38.9775 9.85097 39.1139 9.49302C39.2531 9.13222 39.3227 8.69046 39.3227 8.16774ZM48.0212 3.8041H50.3905V9.39501C50.3905 10.0598 50.2314 10.6351 49.9133 11.1209C49.5979 11.6038 49.1576 11.9774 48.5922 12.2416C48.0269 12.503 47.3706 12.6336 46.6235 12.6336C45.8706 12.6336 45.2116 12.503 44.6462 12.2416C44.0809 11.9774 43.6405 11.6038 43.3252 11.1209C43.0127 10.6351 42.8564 10.0598 42.8564 9.39501V3.8041H45.2258V9.19046C45.2258 9.46035 45.2854 9.70183 45.4047 9.91489C45.5241 10.1251 45.6888 10.2899 45.8991 10.4092C46.1121 10.5285 46.3536 10.5882 46.6235 10.5882C46.8962 10.5882 47.1377 10.5285 47.3479 10.4092C47.5581 10.2899 47.7229 10.1251 47.8422 9.91489C47.9616 9.70183 48.0212 9.46035 48.0212 9.19046V3.8041ZM51.5166 12.5314V3.8041H55.2836C55.9314 3.8041 56.4981 3.922 56.9839 4.15779C57.4697 4.39359 57.8476 4.73308 58.1175 5.17626C58.3873 5.61944 58.5223 6.15069 58.5223 6.77001C58.5223 7.39501 58.3831 7.922 58.1047 8.35097C57.8291 8.77995 57.4413 9.10382 56.9413 9.32257C56.4442 9.54132 55.8632 9.65069 55.1984 9.65069H52.9484V7.80978H54.7211C54.9996 7.80978 55.2368 7.77569 55.4328 7.70751C55.6317 7.63649 55.7836 7.52427 55.8888 7.37086C55.9967 7.21745 56.0507 7.01717 56.0507 6.77001C56.0507 6.52001 55.9967 6.31688 55.8888 6.16063C55.7836 6.00154 55.6317 5.88507 55.4328 5.8112C55.2368 5.7345 54.9996 5.69614 54.7211 5.69614H53.8859V12.5314H51.5166ZM56.6302 8.52569L58.8121 12.5314H56.2382L54.1075 8.52569H56.6302ZM61.9229 12.5314V3.8041H64.2922V10.6223H67.8206V12.5314H61.9229ZM76.893 8.16774C76.893 9.13933 76.7041 9.95893 76.3263 10.6265C75.9484 11.2913 75.4385 11.7956 74.7964 12.1393C74.1544 12.4802 73.4385 12.6507 72.6487 12.6507C71.8532 12.6507 71.1345 12.4788 70.4925 12.1351C69.8532 11.7885 69.3447 11.2828 68.9669 10.618C68.5919 9.95041 68.4044 9.13364 68.4044 8.16774C68.4044 7.19614 68.5919 6.37796 68.9669 5.71319C69.3447 5.04558 69.8532 4.54131 70.4925 4.20041C71.1345 3.85666 71.8532 3.68478 72.6487 3.68478C73.4385 3.68478 74.1544 3.85666 74.7964 4.20041C75.4385 4.54131 75.9484 5.04558 76.3263 5.71319C76.7041 6.37796 76.893 7.19614 76.893 8.16774ZM74.4555 8.16774C74.4555 7.64501 74.3859 7.20467 74.2467 6.84671C74.1104 6.48592 73.9072 6.21319 73.6373 6.02853C73.3703 5.84103 73.0407 5.74728 72.6487 5.74728C72.2567 5.74728 71.9257 5.84103 71.6558 6.02853C71.3888 6.21319 71.1856 6.48592 71.0464 6.84671C70.9101 7.20467 70.8419 7.64501 70.8419 8.16774C70.8419 8.69046 70.9101 9.13222 71.0464 9.49302C71.1856 9.85097 71.3888 10.1237 71.6558 10.3112C71.9257 10.4959 72.2567 10.5882 72.6487 10.5882C73.0407 10.5882 73.3703 10.4959 73.6373 10.3112C73.9072 10.1237 74.1104 9.85097 74.2467 9.49302C74.3859 9.13222 74.4555 8.69046 74.4555 8.16774ZM83.6569 6.68478C83.6199 6.53421 83.5617 6.40211 83.4822 6.28847C83.4026 6.172 83.3032 6.07399 83.1839 5.99444C83.0674 5.91205 82.931 5.85097 82.7748 5.8112C82.6214 5.76859 82.4523 5.74728 82.2677 5.74728C81.8699 5.74728 81.5305 5.84245 81.2492 6.03279C80.9708 6.22313 80.7577 6.49728 80.61 6.85524C80.4651 7.21319 80.3927 7.64501 80.3927 8.15069C80.3927 8.66205 80.4623 9.09955 80.6015 9.46319C80.7407 9.82683 80.9481 10.1052 81.2236 10.2984C81.4992 10.4916 81.8415 10.5882 82.2506 10.5882C82.6114 10.5882 82.9111 10.5356 83.1498 10.4305C83.3912 10.3254 83.5716 10.1763 83.691 9.98308C83.8103 9.78989 83.8699 9.56262 83.8699 9.30126L84.279 9.34387H82.2847V7.65637H86.154V8.8666C86.154 9.66205 85.985 10.3425 85.6469 10.9078C85.3117 11.4703 84.8486 11.9021 84.2577 12.2032C83.6697 12.5015 82.9949 12.6507 82.2336 12.6507C81.3841 12.6507 80.6384 12.4703 79.9964 12.1095C79.3543 11.7487 78.8529 11.2345 78.4921 10.5669C78.1341 9.89927 77.9552 9.10524 77.9552 8.18478C77.9552 7.46319 78.0645 6.82399 78.2833 6.26717C78.5049 5.71035 78.8117 5.24018 79.2037 4.85666C79.5958 4.47029 80.0489 4.1791 80.5631 3.98308C81.0773 3.78421 81.6285 3.68478 82.2165 3.68478C82.7336 3.68478 83.2137 3.75864 83.6569 3.90637C84.1029 4.05126 84.4964 4.25864 84.8373 4.52853C85.181 4.79558 85.458 5.11234 85.6682 5.47882C85.8785 5.84529 86.0063 6.24728 86.0518 6.68478H83.6569ZM95.7133 8.16774C95.7133 9.13933 95.5244 9.95893 95.1466 10.6265C94.7687 11.2913 94.2588 11.7956 93.6167 12.1393C92.9747 12.4802 92.2588 12.6507 91.469 12.6507C90.6736 12.6507 89.9548 12.4788 89.3128 12.1351C88.6736 11.7885 88.165 11.2828 87.7872 10.618C87.4122 9.95041 87.2247 9.13364 87.2247 8.16774C87.2247 7.19614 87.4122 6.37796 87.7872 5.71319C88.165 5.04558 88.6736 4.54131 89.3128 4.20041C89.9548 3.85666 90.6736 3.68478 91.469 3.68478C92.2588 3.68478 92.9747 3.85666 93.6167 4.20041C94.2588 4.54131 94.7687 5.04558 95.1466 5.71319C95.5244 6.37796 95.7133 7.19614 95.7133 8.16774ZM93.2758 8.16774C93.2758 7.64501 93.2062 7.20467 93.067 6.84671C92.9307 6.48592 92.7275 6.21319 92.4577 6.02853C92.1906 5.84103 91.8611 5.74728 91.469 5.74728C91.077 5.74728 90.746 5.84103 90.4761 6.02853C90.2091 6.21319 90.0059 6.48592 89.8667 6.84671C89.7304 7.20467 89.6622 7.64501 89.6622 8.16774C89.6622 8.69046 89.7304 9.13222 89.8667 9.49302C90.0059 9.85097 90.2091 10.1237 90.4761 10.3112C90.746 10.4959 91.077 10.5882 91.469 10.5882C91.8611 10.5882 92.1906 10.4959 92.4577 10.3112C92.7275 10.1237 92.9307 9.85097 93.067 9.49302C93.2062 9.13222 93.2758 8.69046 93.2758 8.16774Z" fill="white"/>
</svg>
